<?xml version="1.0" encoding="UTF-8"?>
<svg width="346px" height="167px" viewBox="0 0 346 167" version="1.1" xmlns="http://www.w3.org/2000/svg" xmlns:xlink="http://www.w3.org/1999/xlink">
    <!-- Generator: Sketch 49.3 (51167) - http://www.bohemiancoding.com/sketch -->
    <title>Desktop HD Copy</title>
    <desc>Created with Sketch.</desc>
    <defs>
        <linearGradient x1="50%" y1="0%" x2="50%" y2="100%" id="linearGradient-1">
            <stop stop-color="#47E3E6" offset="0%"></stop>
            <stop stop-color="#22C3C9" offset="100%"></stop>
        </linearGradient>
    </defs>
    <g id="Desktop-HD-Copy" stroke="none" stroke-width="1" fill="none" fill-rule="evenodd">
        <rect id="Rectangle-18" fill="#FFFFFF" x="0" y="2" width="346" height="165"></rect>
        <g id="Triangles-Copy-2" transform="translate(313.000000, 72.000000) scale(-1, 1) rotate(90.000000) translate(-313.000000, -72.000000) translate(250.000000, 27.000000)" stroke="url(#linearGradient-1)" stroke-width="2.1">
            <polyline id="Back-Triangle" points="11.34 88.7323944 62.58 0 113.82 88.7323944 34.86 88.7323944"></polyline>
            <polygon id="Middle-Triangle" points="74.76 0 126 88.7323944 23.52 88.7323944"></polygon>
            <polyline id="Front-Triangle" points="0 88.7323944 51.24 0 102.48 88.7323944 23.52 88.7323944"></polyline>
        </g>
        <g id="Triangles-Copy-3" transform="translate(36.000000, 72.000000) rotate(90.000000) translate(-36.000000, -72.000000) translate(-27.000000, 27.000000)" stroke="url(#linearGradient-1)" stroke-width="2.1">
            <polyline id="Back-Triangle" points="11.34 88.7323944 62.58 0 113.82 88.7323944 34.86 88.7323944"></polyline>
            <polygon id="Middle-Triangle" points="74.76 0 126 88.7323944 23.52 88.7323944"></polygon>
            <polyline id="Front-Triangle" points="0 88.7323944 51.24 0 102.48 88.7323944 23.52 88.7323944"></polyline>
        </g>
    </g>
</svg>